<?xml version="1.0" encoding="UTF-8" standalone="no"?>
<svg
   role="img"
   viewBox="0 0 24 24"
   version="1.1"
   id="svg136"
   sodipodi:docname="libreofficewriter.svg"
   inkscape:version="1.2.1 (9c6d41e, 2022-07-14)"
   xmlns:inkscape="http://www.inkscape.org/namespaces/inkscape"
   xmlns:sodipodi="http://sodipodi.sourceforge.net/DTD/sodipodi-0.dtd"
   xmlns="http://www.w3.org/2000/svg"
   xmlns:svg="http://www.w3.org/2000/svg">
  <defs
     id="defs140" />
  <sodipodi:namedview
     id="namedview138"
     pagecolor="#ffffff"
     bordercolor="#000000"
     borderopacity="0.25"
     inkscape:showpageshadow="2"
     inkscape:pageopacity="0.0"
     inkscape:pagecheckerboard="0"
     inkscape:deskcolor="#d1d1d1"
     showgrid="false"
     inkscape:zoom="6.4637196"
     inkscape:cx="-5.6469033"
     inkscape:cy="14.54271"
     inkscape:window-width="1440"
     inkscape:window-height="456"
     inkscape:window-x="0"
     inkscape:window-y="25"
     inkscape:window-maximized="0"
     inkscape:current-layer="svg136" />
  <title
     id="title132">LibreOffice Writer</title>
  <path
     d="M22 0v7l-7-7h7zm0 9v12c0 1.662-1.338 3-3 3H5c-1.662 0-3-1.338-3-3V3c0-1.662 1.338-3 3-3h8l9 9zM6 10h5V9H6v1zm0 2h5v-1H6v1zm0 2h5v-1H6v1zm5 3H6v1h5v-1zm7-2H6v1h12v-1zm0-6h-6v5h6V9zm-1.5 2a.5.5 0 1 0 0-1 .5.5 0 0 0 0 1zM14 11l-1 2h3l-2-2z"
     id="path134"
     style="fill:#ffffff;fill-opacity:1" />
</svg>
